<?xml version="1.0" standalone="no"?>
<!DOCTYPE svg PUBLIC "-//W3C//DTD SVG 20010904//EN"
 "http://www.w3.org/TR/2001/REC-SVG-20010904/DTD/svg10.dtd">
<svg version="1.0" xmlns="http://www.w3.org/2000/svg"
 width="700.000000pt" height="700.000000pt" viewBox="0 0 700.000000 700.000000"
 preserveAspectRatio="xMidYMid meet">
<metadata>
Created by potrace 1.11, written by Peter Selinger 2001-2013
</metadata>
<g transform="translate(0.000000,700.000000) scale(0.100000,-0.100000)"
fill="#000000" stroke="none">
<path d="M3230 6989 c-703 -57 -1372 -321 -1915 -756 -141 -112 -371 -337
-490 -478 -214 -254 -391 -537 -523 -835 -304 -690 -379 -1446 -216 -2183 306
-1382 1439 -2456 2834 -2686 227 -38 322 -45 580 -45 258 0 353 7 580 45 983
162 1855 747 2392 1604 177 282 329 635 413 963 278 1070 36 2205 -652 3067
-182 228 -460 491 -700 663 -663 474 -1497 706 -2303 641z m385 -1344 c136
-36 241 -124 303 -252 36 -77 37 -80 37 -199 0 -118 -1 -121 -37 -195 -93
-187 -291 -293 -490 -260 -148 24 -277 122 -346 260 -33 68 -37 83 -40 175 -5
118 16 194 75 283 106 159 310 236 498 188z m-1317 -931 c19 -72 98 -266 162
-398 155 -321 371 -663 661 -1046 137 -182 366 -460 379 -460 4 0 60 62 123
138 294 353 547 709 744 1046 135 230 297 578 335 720 7 25 15 46 19 46 8 0
114 -109 165 -170 144 -173 289 -466 340 -683 10 -46 24 -82 33 -86 9 -5 44
-11 77 -15 148 -16 330 -84 471 -175 339 -220 543 -591 543 -991 0 -584 -420
-1080 -996 -1175 -89 -14 -264 -16 -1789 -13 -1689 4 -1690 4 -1781 25 -125
30 -203 57 -314 109 -411 194 -696 557 -796 1014 -15 67 -19 126 -19 280 1
176 3 206 28 308 30 131 94 295 155 399 212 361 578 619 979 690 l102 18 49
82 c27 45 70 111 96 147 46 65 202 236 215 236 4 0 12 -21 19 -46z"/>
</g>
</svg>
